<svg xmlns="http://www.w3.org/2000/svg" viewBox="0 0 530.11 85.71"><defs><style>.cls-1{fill:#f36e56;}</style></defs><title>placeholderAsset 9</title><g id="Layer_2" data-name="Layer 2"><g id="Layer_1-2" data-name="Layer 1"><path class="cls-1" d="M159,25h8.41l.09,4.88c3-3.87,7.06-5.72,12.28-5.72,5.89,0,10.85,2.78,13.46,7.32,3.28-4.88,8.33-7.32,14.81-7.32,10.68,0,17.33,6.82,17.33,18.09V66.61H216V43.05c0-6.65-3-10.35-8.67-10.35-6.22,0-10.35,4.37-10.35,10.85V66.61h-9.42V43.05c0-6.65-3.11-10.35-8.75-10.35-6.14,0-10.35,4.37-10.35,10.85V66.61H159Z"/><path class="cls-1" d="M233.46,45.82c0-12.45,8.67-21.7,22.22-21.7s22.12,9.25,22.12,21.7-8.66,21.71-22.12,21.71S233.46,58.28,233.46,45.82ZM255.68,59c7.74,0,12.7-5.89,12.7-13.13s-5-13.12-12.7-13.12-12.79,5.89-12.79,13.12S247.85,59,255.68,59Z"/><path class="cls-1" d="M286.55,25H295l.09,5.47c3.53-4.21,8.5-6.31,14.39-6.31,10.68,0,17.75,7.57,17.75,19.44v23h-9.42V44.23c0-7.32-3.79-11.53-10.1-11.53-6.9,0-11.7,5-11.7,12V66.61h-9.42Z"/><path class="cls-1" d="M335.26,45.82c0-12.87,8.67-21.62,21.54-21.62,14.64,0,22.72,9.59,21.37,25.16H344.94c.75,6.06,5.8,9.93,13.12,9.93,4.71,0,9.43-1.69,11.95-4.29l5.72,5.55C371.61,65,365,67.78,357.81,67.78,344.1,67.78,335.26,59.12,335.26,45.82ZM369.17,42c-.67-5.89-5.22-9.68-12.12-9.68-6.56,0-10.85,3.54-12,9.68Z"/><path class="cls-1" d="M384.06,45.82c0-12.87,8.66-21.62,21.54-21.62,14.64,0,22.71,9.59,21.37,25.16H393.73c.76,6.06,5.81,9.93,13.13,9.93,4.71,0,9.42-1.69,11.95-4.29l5.72,5.55c-4.13,4.46-10.77,7.23-17.93,7.23C392.89,67.78,384.06,59.12,384.06,45.82ZM418,42c-.67-5.89-5.21-9.68-12.11-9.68-6.56,0-10.86,3.54-12,9.68Z"/><path class="cls-1" d="M432.85,45.82c0-13.12,8.67-21.7,20.45-21.7,6,0,11.1,2,14.38,5.38V7.71h9.43v58.9h-8.42l-.08-5.56c-3.2,4-8.75,6.48-15.31,6.48C441.52,67.53,432.85,59,432.85,45.82ZM455,59c7.49,0,12.7-5.38,12.7-13.13S462.47,32.7,455,32.7s-12.7,5.38-12.7,13.12S447.49,59,455,59Z"/><path class="cls-1" d="M485.85,45.82c0-12.78,8.42-21.7,20.62-21.7,6.48,0,11.95,2.44,15.14,6.48L521.7,25h8.41V66.61H521.7l-.09-5.56c-3.19,4-8.75,6.48-15.14,6.48C494.27,67.53,485.85,58.61,485.85,45.82ZM508,59c7.49,0,12.71-5.38,12.71-13.13S515.47,32.7,508,32.7s-12.7,5.38-12.7,13.12S500.49,59,508,59Z"/><path class="cls-1" d="M113.5,36.88,96.1,19.49A28.93,28.93,0,0,0,60.59,15.2L55.11,9.73A33,33,0,0,0,31.63,0C18.5,0,0,9.7,0,29.46A27.88,27.88,0,0,0,8.2,49.25L25.78,66.83A29.2,29.2,0,0,0,61.9,71L67,76.07a32.68,32.68,0,0,0,23.26,9.64c13,0,31.37-9.63,31.37-29.23a27.52,27.52,0,0,0-8.11-19.6Zm-67,29.73a20.36,20.36,0,0,1-14.47-6L14.42,43A19.08,19.08,0,0,1,8.8,29.47h0c0-12,11-20.66,22.83-20.66A24.25,24.25,0,0,1,48.89,16l4.86,4.86L35.85,38.72a4.39,4.39,0,0,0,0,6.22L55.44,64.53a20.47,20.47,0,0,1-9,2.08ZM54.9,51.54h0l-9.7-9.7L60,27,77.25,44.31,62.46,59.1ZM90.24,76.9a23.93,23.93,0,0,1-17-7.05l-4.52-4.52,17.9-17.9a4.43,4.43,0,0,0,0-6.23L67.07,21.69c1.77-.83,13.21-5.58,22.8,4l17.4,17.4a18.79,18.79,0,0,1,5.54,13.37c0,12-11,20.42-22.57,20.42Z"/></g></g></svg>