<svg xmlns="http://www.w3.org/2000/svg" viewBox="0 0 250 250"><defs><style>.cls-1{fill:#fde7e3;}.cls-2{fill:#f36e56;}</style></defs><title>placeholderAsset 13</title><g id="Layer_2" data-name="Layer 2"><g id="Layer_1-2" data-name="Layer 1"><rect class="cls-1" width="250" height="250" rx="16.02" ry="16.02"/><path class="cls-2" d="M178.34,119.46,160.88,102a29,29,0,0,0-35.65-4.3l-5.49-5.49a33.1,33.1,0,0,0-23.57-9.77C83,82.44,64.43,92.18,64.43,112a28,28,0,0,0,8.22,19.86L90.3,149.52a29.29,29.29,0,0,0,36.25,4.17l5.11,5.1A32.76,32.76,0,0,0,155,168.47c13.08,0,31.49-9.67,31.49-29.34a27.64,27.64,0,0,0-8.14-19.67Zm-67.26,29.83a20.42,20.42,0,0,1-14.53-6L78.9,125.62A19.12,19.12,0,0,1,73.26,112h0c0-12.08,11.08-20.73,22.91-20.73a24.39,24.39,0,0,1,17.33,7.17l4.87,4.88-18,18a4.41,4.41,0,0,0,0,6.25l19.66,19.65a20.47,20.47,0,0,1-9,2.09Zm8.44-15.12h0l-9.73-9.74,14.84-14.84L142,126.92l-14.84,14.84ZM155,159.63a24,24,0,0,1-17.09-7.09L133.36,148l18-18a4.43,4.43,0,0,0,0-6.25l-19.59-19.58c1.78-.83,13.25-5.6,22.89,4l17.46,17.46a18.87,18.87,0,0,1,5.56,13.42c0,12-11,20.5-22.66,20.5Z"/></g></g></svg>