<?xml version="1.0" encoding="UTF-8"?>
<!DOCTYPE svg PUBLIC '-//W3C//DTD SVG 1.1//EN' 'http://www.w3.org/Graphics/SVG/1.1/DTD/svg11.dtd'>
<svg width="500" height="200" clip-rule="evenodd" fill-rule="evenodd" image-rendering="optimizeQuality" shape-rendering="geometricPrecision" text-rendering="geometricPrecision" version="1.1" viewBox="0 0 14383 5749" xml:space="preserve" xmlns="http://www.w3.org/2000/svg">
 <defs>
  <style type="text/css">
   <![CDATA[
    .fil0 {fill:none}
    .fil1 {fill:#000000;fill-rule:nonzero}
   ]]>
  </style>
 </defs>
   <polygon class="fil0" points="14383 5749 0 5749 0 0 14383 0"/>
    <path class="fil1" d="m3884 1445h-1906c-264 0-478 214-478 478v1906c0 264 214 478 478 478h1906c264 0 478-214 478-478v-1906c0-264-214-478-478-478zm-42 2191c0 83-68 151-151 151h-1520c-83 0-151-68-151-151v-1520c0-83 68-151 151-151h1520c83 0 151 68 151 151v1520z"/>
    <path class="fil1" d="m2627 3265c-48 0-87-39-87-87v-607c0-48 39-87 87-87h608c48 0 87 39 87 87v607c0 48-39 87-87 87h-608z"/>
     <path class="fil1" d="m5819 2749c-89-24-173-47-238-76-121-54-177-129-177-235 0-201 195-291 388-291 184 0 345 76 453 214l7 9 156-122-7-9c-143-182-356-283-598-283-162 0-310 44-417 123-120 89-184 216-184 369 0 355 334 441 603 511 272 72 438 126 438 334 0 204-165 336-420 336-126 0-360-33-507-258l-7-11-164 119 6 10c139 210 379 331 658 331 380 0 636-215 636-534 0-366-347-460-627-536z"/>
     <path class="fil1" d="m7685 2483v192c-106-143-262-222-445-222-348 0-591 281-591 683 0 401 243 680 591 680 184 0 341-78 445-222v713h183v-1825h-183zm-430 1155c-200 0-413-133-413-505 0-243 108-502 413-502 261 0 430 197 430 502 0 307-169 505-430 505z"/>
     <path class="fil1" d="m9078 2483v720c0 252-173 435-410 435-198 0-294-117-294-358v-797h-183v834c0 312 170 499 454 499 177 0 330-75 433-213v183h183v-1304h-183z"/>
     <path class="fil1" d="m10107 2453c-184 0-367 61-502 167l-9 7 96 145 10-9c114-99 281-134 400-134 67 0 286 13 286 182 0 149-182 177-358 204-22 3-43 7-64 10-129 21-430 72-430 392 0 246 174 400 454 400 172 0 306-59 398-174v145h183v-946c0-242-174-387-464-387zm-99 1185c-85 0-281-23-281-232 0-145 92-189 273-222 18-3 37-7 57-10 114-20 242-42 331-98v189c0 275-197 373-381 373z"/>
     <path class="fil1" d="m11630 2508c-43-31-112-50-183-50-144 0-291 77-371 191v-166h-183v1304h183v-698c0-309 174-448 346-448 53 0 111 12 146 31l12 7 57-166-7-5z"/>
    <path class="fil1" d="m12295 2453c-360 0-611 282-611 685 0 406 251 678 626 678 265 0 426-128 514-235l7-9-133-118-8 10c-87 112-219 174-371 174-265 0-438-185-442-473h1e3l1-11c1-11 5-50 5-93 0-358-242-608-588-608zm-412 552c25-229 183-376 407-376 271 0 384 192 399 376h-806z"/>
</svg>
