<?xml version="1.0" standalone="no"?>
<!DOCTYPE svg PUBLIC "-//W3C//DTD SVG 20010904//EN"
 "http://www.w3.org/TR/2001/REC-SVG-20010904/DTD/svg10.dtd">
<svg version="1.0" xmlns="http://www.w3.org/2000/svg"
 width="250.000000pt" height="250.000000pt" viewBox="0 0 250.000000 250.000000"
 preserveAspectRatio="xMidYMid meet">
<metadata>
Created by potrace 1.14, written by Peter Selinger 2001-2017
</metadata>
<g transform="translate(0.000000,250.000000) scale(0.100000,-0.100000)"
fill="#000000" stroke="none">
<path d="M92 2485 c-35 -19 -69 -54 -81 -83 -8 -19 -11 -357 -9 -1164 3 -1130
3 -1137 24 -1164 11 -15 33 -37 48 -48 27 -21 32 -21 1176 -21 1144 0 1149 0
1176 21 15 11 37 33 48 48 21 27 21 32 21 1176 0 1144 0 1149 -21 1176 -11 15
-33 37 -48 48 -27 21 -33 21 -1169 23 -907 1 -1147 -1 -1165 -12z"/>
</g>
</svg>
